PathFileType	4	(X/Y/Z)	Patient4_TMGait_0pt8_01_left_31.trc.trc
DataRate	CameraRate	NumFrames	NumMarkers	Units	OrigDataRate	OrigDataStartFrame	OrigNumFrames
89.743589743590	89.743589743590	4	33	mm	89.743589743590	1	       141
Frame#	Time	Sacral			L.Shoulder			Chest			R.Shoulder			Neck			R.ASIS			L.ASIS			R.Thigh.Superior			R.Thigh.Lateral			R.Thigh.Inferior			R.Patella			L.Thigh.Superior			L.Thigh.Lateral			L.Thigh.Inferior			L.Patella			L.Shank.Superior			L.Shank.Lateral			L.Shank.Inferior			R.Shank.Superior			R.Shank.Lateral			R.Shank.Inferior			R.Heel			R.Midfoot.Superior			R.Midfoot.Lateral			R.Toe			L.Heel			L.Midfoot.Lateral			L.Midfoot.Superior			L.Toe			L.Elbow			L.Wrist			R.Elbow			R.Wrist			
		X1	Y1	Z1	X2	Y2	Z2	X3	Y3	Z3	X4	Y4	Z4	X5	Y5	Z5	X6	Y6	Z6	X7	Y7	Z7	X8	Y8	Z8	X9	Y9	Z9	X10	Y10	Z10	X11	Y11	Z11	X12	Y12	Z12	X13	Y13	Z13	X14	Y14	Z14	X15	Y15	Z15	X16	Y16	Z16	X17	Y17	Z17	X18	Y18	Z18	X19	Y19	Z19	X20	Y20	Z20	X21	Y21	Z21	X22	Y22	Z22	X23	Y23	Z23	X24	Y24	Z24	X25	Y25	Z25	X26	Y26	Z26	X27	Y27	Z27	X28	Y28	Z28	X29	Y29	Z29	X30	Y30	Z30	X31	Y31	Z31	X32	Y32	Z32	X33	Y33	Z33	

1	34.100000000000	844.900896966369	1006.190200703896	538.873029523877	998.896253457703	1424.852106832447	325.652875328876	1116.122159061223	1366.868974786554	482.169222500268	1045.357833921481	1446.366487845493	659.564409526395	993.423063310801	1494.824343809768	478.012133233627	1078.256600770870	947.600536007773	638.810386509136	1045.248794986538	962.729127354745	367.147654434032	1119.651469676507	743.858991634625	608.938006670525	1036.744493404205	634.628660950610	668.657973437187	1110.021082646894	583.066248391356	586.173289393286	1108.303406890207	494.751856732282	590.462299887098	1134.605153905316	784.655557755625	389.958588841677	1089.508517859565	660.106464250366	308.686887701481	1200.532356394779	599.630107355573	361.731652155379	1216.245926358706	510.291353325317	351.488350497592	1149.116060376133	441.949999326665	346.926893043734	1003.890399798770	400.168263154387	308.831380504215	998.029054604272	267.757532415662	358.368039502547	1081.514308416711	406.029341887743	596.389029146407	1010.872005097055	300.429471159676	654.104813372849	1054.346070331064	207.361142226763	589.141328442110	920.542446304142	43.590359381198	553.147607409836	1091.259131723798	97.504010329581	593.759764332472	1001.934148255308	37.534886381158	630.488248668210	1210.487473762334	43.912775149126	625.129476305057	812.989850351828	206.952718672240	412.573919671771	859.189142839026	158.217216213795	326.513344473354	966.853369750229	160.149033606881	336.921467307135	1034.234943953553	43.329636784984	300.417519417517	1004.998214578551	1063.622630086558	233.926590037395	1159.669341593008	852.025688244677	229.309536234806	1027.140654587909	1104.443765568901	800.054861346641	1186.284432147709	897.652916830523	794.131681459820	
2	34.111142857143	843.784796656266	1006.993880940468	540.510204780767	997.762539108735	1424.654357310993	326.083733556421	1115.905815618988	1366.708038952714	481.872972005749	1046.800356402775	1447.018971919650	659.571545203983	993.804942082528	1494.953227057801	478.616683335785	1077.628556362004	947.646779021992	639.392906131457	1042.912545330158	963.142090284530	367.680587503102	1115.654377002657	742.987140887302	608.666603678902	1032.108338770427	634.619186289855	669.255560209356	1104.036810547195	582.167714858014	586.374237244845	1101.151671845402	494.158939665240	590.741985322996	1134.038709057641	788.309059169000	390.354763313282	1091.133209021465	663.055065654660	308.818274156192	1202.976064923851	604.520403896065	361.073506634101	1220.539590620330	516.312626213330	350.516559173235	1157.357410068468	445.968944159319	345.585031076161	1015.477988751045	395.433261591362	308.463341625388	1018.993358045276	263.126841193415	356.411565064327	1073.967762464813	405.628255643237	596.619009435844	1002.939374116050	300.370413292984	654.523492824533	1045.715883478167	207.101397011309	589.292530844567	911.126420045877	43.642284330194	553.172719083000	1081.868593511535	97.432491773967	593.843840249456	992.529318974055	37.510359701290	630.553679230353	1201.096425740749	43.684749723498	625.155502472455	840.342776823017	189.414761386028	411.560734334221	888.456523313473	145.374100502266	324.476068735575	995.053723802536	154.871398287399	334.047582792384	1069.673225987840	44.532985766476	295.319073642657	997.755931451132	1062.727650525794	236.930411205794	1136.064507714954	842.776148843595	231.966043631544	1038.743928227546	1105.689766320547	801.031005770096	1210.501829878342	912.692740940083	790.097386069609	
3	34.122285714286	842.685798697556	1007.781167916932	542.082579780735	996.680846690989	1424.462401329256	326.496985592744	1115.711717289185	1366.528409021480	481.572976045264	1048.235474870153	1447.638431977884	659.567955924871	994.186133989984	1495.072398516481	479.184553319071	1076.978651257716	947.674515002669	639.937682852274	1040.645365259088	963.535133083471	368.171425322775	1111.702112909499	742.120807044669	608.407599927458	1027.491571833346	634.602799785610	669.843730100546	1098.096824698450	581.268851598869	586.592743440537	1094.051600060247	493.575070065498	591.041621607602	1133.409601054523	791.791635142498	390.744368792965	1092.576637851375	665.821362005793	308.994869530799	1205.179377790881	609.146876590783	360.501840627380	1224.552171257898	522.113428469570	349.644584823523	1165.322696713654	449.857416721585	344.350953292138	1026.984672281506	390.631406262729	308.006965271012	1039.792205393070	258.576020012049	354.462776752757	1066.484720561806	405.233328017786	596.865096678805	995.075274464611	300.308276396420	654.945807176714	1037.176093691880	206.849156908354	589.455889288735	901.837638168617	43.691372028054	553.207609696386	1072.603147454960	97.363545099153	593.935763188556	983.245953799504	37.484231544674	630.618723393085	1191.826076286689	43.462342505778	625.190113771155	867.653381540139	172.121581733613	410.348133038908	917.690820114258	132.774285928867	322.323410180312	1023.105546601268	149.760802399325	331.196303390863	1104.855264489702	45.953448402466	290.400958470593	990.542863780238	1061.875040487746	239.846333186664	1112.756587686195	833.935451804360	234.620144669270	1050.184594102789	1106.940273963015	801.942513073780	1234.243747087855	927.762981457644	786.034672756702	
4	34.133428571429	841.624663901004	1008.526508176487	543.518968619846	995.707297228740	1424.273233908397	326.870366096359	1115.564323794142	1366.298883641548	481.261599837451	1049.658094679573	1448.180829320917	659.536732362190	994.571565348611	1495.160690809314	479.681255043067	1076.291688856414	947.657736738795	640.405215327139	1038.514947972172	963.867916225205	368.575767601307	1107.798640314757	741.247031008123	608.185707011868	1022.844716545654	634.573819723669	670.412723732876	1092.167995758771	580.359094595268	586.851420384078	1086.970469975561	493.000742245252	591.383396478299	1132.635847279608	794.895265268653	391.121763696261	1093.651066882854	668.212400364702	309.220318309320	1206.884724497941	613.225216245092	360.100450657077	1227.996695501589	527.482579330183	348.977261935845	1172.766384660245	453.505708670047	343.315881993058	1038.428317869371	385.697483837734	307.365634518584	1060.400800202389	254.230398147933	352.529015788739	1059.031140819287	404.851114670813	597.144386494229	987.241532900836	300.245275273928	655.378448210567	1028.706762357445	206.612689475140	589.645508830490	892.685736760219	43.735007241730	553.260825709478	1063.470600404821	97.298625761129	594.043847655698	974.089745391209	37.455237420531	630.684045765293	1182.681448727512	43.249199632756	625.240234894373	895.107125935798	155.325144314522	408.742226887116	947.107734648886	120.692956953000	319.963128353987	1051.063011305662	145.055933341106	328.406290493072	1139.749173289448	47.944631625420	285.901352745057	983.282710678107	1061.137730934974	242.591484348042	1089.843750468595	825.900616037398	237.311333752279	1061.433128708720	1108.226313745333	802.696362184503	1257.169815690251	943.097418908380	781.850569711581	
